:FULLY-SPECIFIED
:FORCE-ALL-JOINTS-BE-3DOF
:DEGREES
130
root 9.07471 16.1104 -19.115 5.70741 7.44746 4.9179
lfemur 17.1778 1.77645 -26.295
ltibia 4.62825 0 0
lfoot -13.5165 0.84373 0
ltoes -7.37823 0 0
rfemur -42.1587 10.7692 6.10931
rtibia 24.7116 0 0
rfoot -23.4245 -11.8525 0
rtoes -21.5197 0 0
lowerback -8.16431 -3.72607 -5.96584
upperback -1.21889 -4.48981 2.21955
thorax 3.95129 -2.34183 5.13047
lowerneck -19.3158 -5.64061 -13.4878
upperneck 20.6075 -6.60372 11.4049
head 10.682 -2.80492 5.3804
lclavicle -4.66828e-14 -1.57835e-14 0
lhumerus -31.1651 -25.5458 97.0466
lradius 40.0106 0 0
lwrist 10.3963 0 0
lhand -10.0024 -23.7635 0
lfingers 7.12502 0 0
lthumb 15.979 5.56759 0
rclavicle -4.66828e-14 -1.57835e-14 0
rhumerus -47.1426 6.81589 -82.4713
rradius 33.288 0 0
rwrist -18.0286 0 0
rhand -29.4808 -23.604 0
rfingers 7.12502 0 0
rthumb -2.81601 -53.5652 0
131
root 9.05028 16.1263 -18.9624 5.76245 7.60855 4.80084
lfemur 16.8917 1.94446 -26.0007
ltibia 5.82069 0 0
lfoot -13.0907 1.08786 0
ltoes -7.55185 0 0
rfemur -42.0097 10.5937 6.44254
rtibia 24.653 0 0
rfoot -23.2052 -11.558 0
rtoes -21.4427 0 0
lowerback -8.09431 -3.70305 -5.84947
upperback -1.23027 -4.46846 2.24766
thorax 3.89243 -2.32928 5.09948
lowerneck -19.2876 -5.69001 -13.5252
upperneck 20.4695 -6.66952 11.4784
head 10.6433 -2.83103 5.39951
lclavicle -4.6507e-14 -1.49196e-14 0
lhumerus -31.5193 -25.3284 97.1156
lradius 39.7732 0 0
lwrist 10.2912 0 0
lhand -9.74913 -23.6303 0
lfingers 7.12502 0 0
lthumb 16.2225 5.67541 0
rclavicle -4.6507e-14 -1.49196e-14 0
rhumerus -47.1457 6.83407 -82.4122
rradius 33.2304 0 0
rwrist -18.0038 0 0
rhand -29.4304 -23.6712 0
rfingers 7.12502 0 0
rthumb -2.76738 -53.6331 0
132
root 9.02585 16.1423 -18.8099 5.81891 7.76307 4.67456
lfemur 16.5559 2.1243 -25.6901
ltibia 7.11334 0 0
lfoot -12.64 1.35619 0
ltoes -7.7279 0 0
rfemur -41.8345 10.3965 6.80833
rtibia 24.6351 0 0
rfoot -22.9652 -11.2476 0
rtoes -21.3496 0 0
lowerback -8.01642 -3.67628 -5.72421
upperback -1.24276 -4.44299 2.27784
thorax 3.82703 -2.31445 5.06638
lowerneck -19.2614 -5.74049 -13.5627
upperneck 20.3223 -6.7369 11.5568
head 10.6024 -2.85729 5.41994
lclavicle -4.6297e-14 -1.39808e-14 0
lhumerus -31.8889 -25.0843 97.1775
lradius 39.5067 0 0
lwrist 10.1697 0 0
lhand -9.47957 -23.4876 0
lfingers 7.12502 0 0
lthumb 16.4815 5.79105 0
rclavicle -4.6297e-14 -1.39808e-14 0
rhumerus -47.1465 6.86106 -82.3572
rradius 33.1749 0 0
rwrist -17.9806 0 0
rhand -29.3779 -23.7416 0
rfingers 7.12502 0 0
rthumb -2.71662 -53.7042 0
133
root 9.00142 16.1583 -18.6573 5.87667 7.91104 4.5396
lfemur 16.1726 2.31497 -25.3645
ltibia 8.49868 0 0
lfoot -12.1665 1.64711 0
ltoes -7.90615 0 0
rfemur -41.6341 10.179 7.20472
rtibia 24.6552 0 0
rfoot -22.7059 -10.9222 0
rtoes -21.2414 0 0
lowerback -7.93118 -3.64588 -5.59062
upperback -1.25628 -4.41353 2.30992
thorax 3.75554 -2.29743 5.03129
lowerneck -19.2373 -5.79193 -13.6004
upperneck 20.1667 -6.80571 11.6397
head 10.5592 -2.88364 5.44161
lclavicle -4.60537e-14 -1.29724e-14 0
lhumerus -32.2727 -24.815 97.2327
lradius 39.2129 0 0
lwrist 10.033 0 0
lhand -9.19517 -23.3363 0
lfingers 7.12502 0 0
lthumb 16.7549 5.91385 0
rclavicle -4.60537e-14 -1.29724e-14 0
rhumerus -47.1448 6.8964 -82.306
rradius 33.1219 0 0
rwrist -17.9593 0 0
rhand -29.3234 -23.8151 0
rfingers 7.12502 0 0
rthumb -2.66402 -53.7784 0
134
root 8.97699 16.1743 -18.5047 5.93558 8.05248 4.39652
lfemur 15.7442 2.51548 -25.0249
ltibia 9.96918 0 0
lfoot -11.6724 1.95898 0
ltoes -8.08637 0 0
rfemur -41.4092 9.94269 7.62972
rtibia 24.7107 0 0
rfoot -22.4288 -10.5829 0
rtoes -21.1188 0 0
lowerback -7.83913 -3.61201 -5.44923
upperback -1.27071 -4.38023 2.34377
thorax 3.67843 -2.2783 4.99434
lowerneck -19.2149 -5.8442 -13.6381
upperneck 20.0032 -6.87579 11.7268
head 10.514 -2.91006 5.46442
lclavicle -4.57778e-14 -1.19001e-14 0
lhumerus -32.6696 -24.5223 97.2813
lradius 38.8939 0 0
lwrist 9.88199 0 0
lhand -8.89738 -23.1771 0
lfingers 7.12502 0 0
lthumb 17.0411 6.04319 0
rclavicle -4.57778e-14 -1.19001e-14 0
rhumerus -47.1405 6.93961 -82.2586
rradius 33.0717 0 0
rwrist -17.94 0 0
rhand -29.2673 -23.8913 0
rfingers 7.12502 0 0
rthumb -2.60984 -53.8554 0
135
root 8.95255 16.1903 -18.3522 5.9955 8.1874 4.24585
lfemur 15.2726 2.72483 -24.6728
ltibia 11.5173 0 0
lfoot -11.1599 2.29018 0
ltoes -8.26836 0 0
rfemur -41.1609 9.68899 8.08135
rtibia 24.7989 0 0
rfoot -22.1354 -10.231 0
rtoes -20.9827 0 0
lowerback -7.74083 -3.5748 -5.30061
upperback -1.28597 -4.34321 2.37925
thorax 3.59616 -2.25715 4.95563
lowerneck -19.1942 -5.89719 -13.6758
upperneck 19.8326 -6.94696 11.8179
head 10.467 -2.9365 5.4883
lclavicle -4.54702e-14 -1.07693e-14 0
lhumerus -33.0786 -24.2077 97.3237
lradius 38.5513 0 0
lwrist 9.71797 0 0
lhand -8.58761 -23.0109 0
lfingers 7.12502 0 0
lthumb 17.3389 6.1784 0
rclavicle -4.54702e-14 -1.07693e-14 0
rhumerus -47.1336 6.99023 -82.2147
rradius 33.0247 0 0
rwrist -17.9228 0 0
rhand -29.2099 -23.9702 0
rfingers 7.12502 0 0
rthumb -2.55439 -53.9351 0
136
root 8.92812 16.2062 -18.1996 6.05629 8.31581 4.08815
lfemur 14.7602 2.94203 -24.3092
ltibia 13.1355 0 0
lfoot -10.6313 2.63909 0
ltoes -8.45187 0 0
rfemur -40.8899 9.41941 8.55763
rtibia 24.9174 0 0
rfoot -21.8272 -9.86736 0
rtoes -20.8339 0 0
lowerback -7.63681 -3.5344 -5.1453
upperback -1.30197 -4.30261 2.4162
thorax 3.50919 -2.23404 4.91531
lowerneck -19.1751 -5.95077 -13.7134
upperneck 19.6554 -7.01908 11.9125
head 10.4183 -2.96294 5.51314
lclavicle -4.51316e-14 -9.58546e-15 0
lhumerus -33.4985 -23.8729 97.3602
lradius 38.1872 0 0
lwrist 9.54205 0 0
lhand -8.2673 -22.8385 0
lfingers 7.12502 0 0
lthumb 17.6467 6.31886 0
rclavicle -4.51316e-14 -9.58546e-15 0
rhumerus -47.1238 7.04778 -82.1741
rradius 32.9812 0 0
rwrist -17.9079 0 0
rhand -29.1514 -24.0516 0
rfingers 7.12502 0 0
rthumb -2.49794 -54.0172 0
137
root 8.90369 16.2222 -18.047 6.11782 8.43773 3.92396
lfemur 14.2092 3.16608 -23.9355
ltibia 14.8162 0 0
lfoot -10.0889 3.00408 0
ltoes -8.63671 0 0
rfemur -40.5972 9.1354 9.05657
rtibia 25.0633 0 0
rfoot -21.5057 -9.49319 0
rtoes -20.6732 0 0
lowerback -7.52762 -3.49095 -4.98384
upperback -1.31859 -4.25858 2.4545
thorax 3.41799 -2.20908 4.87348
lowerneck -19.1573 -6.00482 -13.751
upperneck 19.4723 -7.09198 12.0103
head 10.3681 -2.98933 5.53888
lclavicle -4.47628e-14 -8.35416e-15 0
lhumerus -33.9283 -23.5195 97.3911
lradius 37.8033 0 0
lwrist 9.35534 0 0
lhand -7.93789 -22.6605 0
lfingers 7.12502 0 0
lthumb 17.9633 6.46391 0
rclavicle -4.47628e-14 -8.35416e-15 0
rhumerus -47.1112 7.1118 -82.1367
rradius 32.9417 0 0
rwrist -17.8953 0 0
rhand -29.0922 -24.1352 0
rfingers 7.12502 0 0
rthumb -2.44076 -54.1016 0
